<svg width="180" height="180" viewBox="0 0 180 180" fill="none" xmlns="http://www.w3.org/2000/svg">
  <style>
    @media (prefers-color-scheme: light) {
      .background { fill: #87CEEB; }
      .cloud { fill: white; }
    }
    @media (prefers-color-scheme: dark) {
      .background { fill: #1a2332; }
      .cloud { fill: #87CEEB; }
    }
  </style>
  <rect class="background" width="180" height="180" rx="37" />
  <g transform="translate(90, 90)">
    <!-- Cloud icon from lucide-react, scaled and centered -->
    <path class="cloud" d="M-27-9c-4.97 0-9 4.03-9 9s4.03 9 9 9h54c4.97 0 9-4.03 9-9s-4.03-9-9-9c0-11.05-8.95-20-20-20-9.39 0-17.27 6.5-19.39 15.23C-23.19-14.37-33-6.59-33-0c0 4.23 1.56 8.09 4.13 11.02C-30.39 10.01-36 3.97-36 0c0-8.28 6.77-15 15-15h.5c2.49-9.65 11.23-17 21.5-17 12.43 0 22.5 10.07 22.5 22.5v.5c7.73 0 14 6.27 14 14 0 7.73-6.27 14-14 14h-54z" transform="scale(1.8)"/>
  </g>
</svg>